<svg width="39" height="35" viewBox="0 0 39 35" fill="none" xmlns="http://www.w3.org/2000/svg">
<path fill-rule="evenodd" clip-rule="evenodd" d="M0 20.65H14.0002V14.35H0V20.65ZM22.5209 8.16647H35.0009V13.0667H22.5209V8.16647ZM24.5007 0H14.0006V2.09985H24.5007V0ZM29.7508 3.38314H8.75055V6.88319H29.7508V3.38314ZM15.98 8.16647H3.50049V13.0667H15.98V8.16647ZM22.5209 26.8335H35.0009V21.9333H22.5209V26.8335ZM24.5007 20.65H38.5009V14.35H24.5007V20.65ZM24.5007 35H14.0006V32.9002H24.5007V35ZM29.7508 31.6169H8.75055V28.1168H29.7508V31.6169ZM15.98 26.8335H3.50049V21.9333H15.98V26.8335Z" fill="#08923C"/>
</svg>
