<svg width="53" height="31" viewBox="0 0 53 31" fill="none" xmlns="http://www.w3.org/2000/svg">
<rect x="0.50061" width="52.0006" height="31" rx="6" fill="white"/>
<path d="M22.4035 10.1934L17.9452 20.8317H15.0354L12.843 12.3426C12.7081 11.8191 12.5927 11.6286 12.188 11.4063C11.5251 11.0479 10.4346 10.7117 9.4718 10.5023L9.53919 10.1935H14.2208C14.8179 10.1935 15.3547 10.5918 15.4897 11.2783L16.6489 17.4355L19.5122 10.1935L22.4035 10.1934ZM33.8014 17.3568C33.8143 14.5506 29.9184 14.3979 29.9464 13.1425C29.954 12.7592 30.3172 12.3537 31.1127 12.2514C31.5077 12.1988 32.5947 12.1603 33.8267 12.7259L34.3095 10.471C33.6467 10.2304 32.7946 10 31.7356 10C29.0157 10 27.1009 11.4467 27.0847 13.5168C27.0669 15.0475 28.4509 15.9018 29.4948 16.4116C30.5667 16.9332 30.9251 17.2663 30.9213 17.7341C30.9143 18.4482 30.066 18.7602 29.2748 18.7742C27.8909 18.7958 27.0882 18.4003 26.4472 18.1017L25.9489 20.4341C26.591 20.7289 27.7799 20.9849 29.0102 21C31.9011 20.9999 33.7923 19.5686 33.8014 17.3568ZM40.9841 20.8318H43.53L41.3086 10.1935H38.9583C38.4302 10.1935 37.985 10.5015 37.7867 10.9733L33.6596 20.8318H36.5483L37.1217 19.243H40.6527L40.9841 20.8318ZM37.9133 17.0626L39.3625 13.068L40.1962 17.0626H37.9133ZM26.3363 10.1934L24.0593 20.8317H21.3068L23.5843 10.1934H26.3363Z" fill="#1A2ADF"/>
</svg>
