<svg width="53" height="31" viewBox="0 0 53 31" fill="none" xmlns="http://www.w3.org/2000/svg">
<rect x="0.5" width="52.0006" height="31" rx="6" fill="white"/>
<path d="M29.7435 9.6084H23.2539V21.4014H29.7435V9.6084Z" fill="#FF5F00"/>
<path d="M23.6672 15.5C23.6662 14.3642 23.9207 13.2431 24.4115 12.2216C24.9023 11.2 25.6165 10.3047 26.5 9.6035C25.4059 8.73384 24.0919 8.19302 22.7082 8.04283C21.3245 7.89265 19.9269 8.13917 18.6752 8.75422C17.4235 9.36928 16.3682 10.328 15.6299 11.5209C14.8915 12.7138 14.5 14.0927 14.5 15.5C14.5 16.9073 14.8915 18.2862 15.6299 19.4791C16.3682 20.672 17.4235 21.6307 18.6752 22.2458C19.9269 22.8608 21.3245 23.1073 22.7082 22.9572C24.0919 22.807 25.4059 22.2662 26.5 21.3965C25.6165 20.6953 24.9023 19.8 24.4115 18.7784C23.9207 17.7568 23.6662 16.6357 23.6672 15.5Z" fill="#EB001B"/>
<path d="M38.5006 15.5C38.5006 16.9073 38.1091 18.2861 37.3709 19.479C36.6326 20.6719 35.5773 21.6307 34.3256 22.2458C33.0739 22.8608 31.6764 23.1073 30.2927 22.9572C28.909 22.807 27.5951 22.2662 26.501 21.3965C27.3837 20.6946 28.0973 19.7992 28.588 18.7777C29.0787 17.7563 29.3337 16.6356 29.3337 15.5C29.3337 14.3644 29.0787 13.2437 28.588 12.2223C28.0973 11.2008 27.3837 10.3054 26.501 9.6035C27.5951 8.73384 28.909 8.19301 30.2927 8.04283C31.6764 7.89265 33.0739 8.13918 34.3256 8.75424C35.5773 9.3693 36.6326 10.3281 37.3709 11.521C38.1091 12.7139 38.5006 14.0927 38.5006 15.5Z" fill="#F79E1B"/>
</svg>
